<svg xmlns="http://www.w3.org/2000/svg" xmlns:xlink="http://www.w3.org/1999/xlink" width="100%" height="100%" version="1.1" viewBox="0 0 32 32" xml:space="preserve" style="fill-rule:evenodd;clip-rule:evenodd;stroke-linejoin:round;stroke-miterlimit:1.41421"><rect id="Rectangle-path" width="32" height="32" x="0" y=".035" style="fill:none"/><path d="M16,26.676c1.469,0 2.662,1.192 2.662,2.662c0,1.469 -1.193,2.662 -2.662,2.662c-1.469,0 -2.662,-1.193 -2.662,-2.662c0,-1.47 1.193,-2.662 2.662,-2.662Zm0,-13.329c1.469,0 2.662,1.193 2.662,2.662c0,1.469 -1.193,2.662 -2.662,2.662c-1.469,0 -2.662,-1.193 -2.662,-2.662c0,-1.469 1.193,-2.662 2.662,-2.662Zm0,-13.347c1.469,0 2.662,1.193 2.662,2.662c0,1.47 -1.193,2.662 -2.662,2.662c-1.469,0 -2.662,-1.192 -2.662,-2.662c0,-1.469 1.193,-2.662 2.662,-2.662Z"/></svg>