<svg xmlns="http://www.w3.org/2000/svg" xmlns:xlink="http://www.w3.org/1999/xlink" width="100%" height="100%" version="1.1" viewBox="0 0 32 32" xml:space="preserve" style="fill-rule:evenodd;clip-rule:evenodd;stroke-linejoin:round;stroke-miterlimit:2"><rect id="Rectangle-path" width="32" height="32" x="0" y=".035" style="fill:none"/><path d="M20.491,1.123l0,2.807c0,0.62 -0.502,1.123 -1.123,1.123l-17.964,0c-0.621,0 -1.123,-0.503 -1.123,-1.123l0,-2.807c0,-0.62 0.502,-1.123 1.123,-1.123l17.964,0c0.621,0 1.123,0.503 1.123,1.123Zm-20.21,8.982l0,2.807c0,0.62 0.502,1.123 1.123,1.123l29.192,0c0.621,0 1.123,-0.503 1.123,-1.123l0,-2.807c0,-0.62 -0.502,-1.123 -1.123,-1.123l-29.192,0c-0.621,0 -1.123,0.503 -1.123,1.123Zm1.123,21.895l29.192,0c0.621,0 1.123,-0.503 1.123,-1.123l0,-2.807c0,-0.62 -0.502,-1.123 -1.123,-1.123l-29.192,0c-0.621,0 -1.123,0.503 -1.123,1.123l0,2.807c0,0.62 0.502,1.123 1.123,1.123Zm17.964,-14.035l-17.964,0c-0.621,0 -1.123,0.503 -1.123,1.123l0,2.807c0,0.62 0.502,1.123 1.123,1.123l17.964,0c0.621,0 1.123,-0.503 1.123,-1.123l0,-2.807c0,-0.62 -0.502,-1.123 -1.123,-1.123Z" style="fill-rule:nonzero"/></svg>