<svg xmlns="http://www.w3.org/2000/svg" xmlns:xlink="http://www.w3.org/1999/xlink" width="100%" height="100%" version="1.1" viewBox="0 0 32 32" xml:space="preserve" style="fill-rule:evenodd;clip-rule:evenodd;stroke-linejoin:round;stroke-miterlimit:1.41421"><rect id="Rectangle-path" width="32" height="32" x="0" y=".035" style="fill:none"/><path id="Rectangle-6" d="M14,14l0,-12c0,-1.104 0.896,-2 2,-2c1.104,0 2,0.896 2,2l0,12l12,0c1.104,0 2,0.896 2,2c0,1.104 -0.896,2 -2,2l-12,0l0,12c0,1.104 -0.896,2 -2,2c-1.104,0 -2,-0.896 -2,-2l0,-12l-12,0c-1.104,0 -2,-0.896 -2,-2c0,-1.104 0.896,-2 2,-2l12,0Z"/></svg>